<?xml version="1.0" encoding="UTF-8"?>
<svg id="Layer_1" data-name="Layer 1" xmlns="http://www.w3.org/2000/svg" viewBox="0 0 15.86 15.86">
  <defs>
    <style>
      .cls-1 {
        fill: #fff;
        stroke-width: 0px;
      }
    </style>
  </defs>
  <path class="cls-1" d="m4.23,6.93c.09-.32.22-.63.38-.91L1.62,3.03c-.86,1.11-1.43,2.44-1.62,3.9h4.23Z"/>
  <path class="cls-1" d="m8.93,0v4.23c.32.09.63.22.91.38l2.99-2.99c-1.11-.86-2.44-1.43-3.9-1.62Z"/>
  <path class="cls-1" d="m1.62,12.83l2.99-2.99c-.16-.28-.29-.59-.38-.91H0c.18,1.46.76,2.79,1.62,3.9Z"/>
  <path class="cls-1" d="m6.02,4.61c.28-.16.59-.29.91-.38V0c-1.46.18-2.79.76-3.9,1.62l2.99,2.99Z"/>
  <path class="cls-1" d="m9.84,11.26c-.28.16-.59.29-.91.38v4.23c1.46-.18,2.79-.76,3.9-1.62l-2.99-2.99Z"/>
  <path class="cls-1" d="m6.93,11.64c-.32-.09-.63-.22-.91-.38l-2.99,2.99c1.11.86,2.44,1.43,3.9,1.62v-4.23Z"/>
  <path class="cls-1" d="m14.25,3.03l-2.99,2.99c.16.28.29.59.38.91h4.23c-.18-1.46-.76-2.79-1.62-3.9Z"/>
  <path class="cls-1" d="m11.64,8.93c-.09.32-.22.63-.38.91l2.99,2.99c.86-1.11,1.43-2.44,1.62-3.9h-4.23Z"/>
</svg>